Coordinates
version=1
nRows=14
nColumns=24
inDegrees=yes

Units are S.I. units (second, meters, Newtons, ...)
Angles are in degrees.

endheader
time	pelvis_tilt	pelvis_list	pelvis_rotation	pelvis_tx	pelvis_ty	pelvis_tz	hip_flexion_r	hip_adduction_r	hip_rotation_r	knee_angle_r	ankle_angle_r	subtalar_angle_r	mtp_angle_r	hip_flexion_l	hip_adduction_l	hip_rotation_l	knee_angle_l	ankle_angle_l	subtalar_angle_l	mtp_angle_l	lumbar_extension	lumbar_bending	lumbar_rotation
      2.47500000	     13.19144222	     -1.76835528	     -1.40937201	     -0.59009717	      0.73674486	     -0.29680491	    -27.39830036	      2.57566168	     -1.83300692	    -20.56578617	     29.17053651	     22.09220820	      0.00000000	     13.55402109	      1.19799820	     -1.91973459	    -11.63936185	     20.33848249	      5.37801011	      0.00000000	    -34.77374014	      2.71787013	      8.29528303
      2.48000000	     13.14206853	     -1.35316768	     -1.54849136	     -0.58190585	      0.73672615	     -0.29712079	    -26.87608188	      1.98147705	     -2.05422146	    -22.71525801	     28.18831601	     22.20243176	      0.00000000	     13.42927639	      1.68941921	     -2.13314666	    -12.23561027	     19.74438125	      4.36266906	      0.00000000	    -34.61628101	      2.24984956	      8.13989530
      2.48500000	     13.13286012	     -0.87771214	     -1.64982142	     -0.57372276	      0.73681876	     -0.29746725	    -26.30651632	      1.34689927	     -2.32878767	    -24.99155856	     27.01837179	     22.07076992	      0.00000000	     13.27608070	      2.24099615	     -2.34707967	    -12.95210574	     19.13338569	      3.42038309	      0.00000000	    -34.50827987	      1.74380510	      7.91904761
      2.49000000	     13.11475045	     -0.38069134	     -1.70713802	     -0.56555924	      0.73697991	     -0.29784220	    -25.63215217	      0.70454638	     -2.66080198	    -27.39345374	     25.60756936	     21.81695202	      0.00000000	     13.12522532	      2.81799647	     -2.47979238	    -13.71555240	     18.50412530	      2.46811484	      0.00000000	    -34.39766882	      1.23402622	      7.62161220
      2.49500000	     13.12863801	      0.17123603	     -1.74831829	     -0.55744091	      0.73724713	     -0.29821127	    -24.90149840	      0.01513746	     -3.02785237	    -29.89513990	     24.06922515	     21.27564215	      0.00000000	     12.94120449	      3.43513805	     -2.67953737	    -14.53073032	     17.85911116	      1.75084903	      0.00000000	    -34.33804944	      0.67651444	      7.28669821
      2.50000000	     13.10190590	      0.71538038	     -1.77227188	     -0.54936526	      0.73754440	     -0.29863526	    -24.03511397	     -0.67540153	     -3.40441540	    -32.47929302	     22.28860767	     20.61238691	      0.00000000	     12.78929857	      4.05843187	     -2.71725328	    -15.36393107	     17.27998757	      0.90957917	      0.00000000	    -34.24608992	      0.14654629	      6.93377085
      2.50500000	     13.09117703	      1.29883610	     -1.77452889	     -0.54135368	      0.73792682	     -0.29905724	    -23.10505762	     -1.40047120	     -3.80549585	    -35.11997563	     20.39737645	     19.66538146	      0.00000000	     12.60438329	      4.71183570	     -2.76999160	    -16.18178674	     16.70935748	      0.27778841	      0.00000000	    -34.19165759	     -0.41394748	      6.54572821
      2.51000000	     13.09897789	      1.91674850	     -1.76525573	     -0.53338378	      0.73838324	     -0.29948523	    -22.12689176	     -2.16790451	     -4.23958080	    -37.78587322	     18.45782167	     18.45512851	      0.00000000	     12.37178954	      5.39431793	     -2.85683140	    -16.95284979	     16.20458452	     -0.17400718	      0.00000000	    -34.17234618	     -0.99996006	      6.12251639
      2.51500000	     13.07015869	      2.52866940	     -1.75628637	     -0.52550102	      0.73886497	     -0.29992595	    -21.03358907	     -2.93083431	     -4.60670394	    -40.46018978	     16.45164492	     17.02447306	      0.00000000	     12.15253780	      6.07569346	     -2.84773097	    -17.67663618	     15.78363895	     -0.60806556	      0.00000000	    -34.13648128	     -1.57064742	      5.69223920
      2.52000000	     13.03481859	      3.15209047	     -1.74055512	     -0.51767211	      0.73939334	     -0.30037800	    -19.87794046	     -3.70995014	     -4.95337572	    -43.10643151	     14.47044090	     15.39555899	      0.00000000	     11.90149427	      6.77034931	     -2.82087715	    -18.32246712	     15.44919845	     -0.92375544	      0.00000000	    -34.11026167	     -2.14083092	      5.23695336
      2.52500000	     12.98435336	      3.76398171	     -1.72416727	     -0.50991587	      0.73996569	     -0.30083089	    -18.65352377	     -4.47666254	     -5.24011050	    -45.69876911	     12.56505518	     13.62811786	      0.00000000	     11.62198886	      7.45592795	     -2.75408114	    -18.87436750	     15.20841654	     -1.14203497	      0.00000000	    -34.08312261	     -2.69042727	      4.76679565
      2.53000000	     12.96829189	      4.39981995	     -1.70251241	     -0.50221924	      0.74059605	     -0.30129803	    -17.43222717	     -5.28274547	     -5.54075091	    -48.21809756	     10.87635901	     11.77000069	      0.00000000	     11.27313851	      8.16850880	     -2.72919479	    -19.35429641	     15.05904553	     -1.25529544	      0.00000000	    -34.11197316	     -3.25167953	      4.27178409
      2.53500000	     12.86864377	      4.95665433	     -1.68647718	     -0.49462124	      0.74121559	     -0.30175862	    -16.06150581	     -5.98181443	     -5.67711194	    -50.65914690	      9.25820648	      9.85939484	      0.00000000	     10.96071019	      8.80836810	     -2.57860112	    -19.72594363	     15.01092427	     -1.34685933	      0.00000000	    -34.06702030	     -3.72461473	      3.81234299
      2.54000000	     12.82043290	      5.52879582	     -1.67669630	     -0.48706222	      0.74190473	     -0.30220261	    -14.72616708	     -6.70170443	     -5.79304642	    -52.99124100	      7.94978074	      8.00504958	      0.00000000	     10.54813864	      9.46803731	     -2.47260596	    -20.00524494	     15.08016266	     -1.37516893	      0.00000000	    -34.08896602	     -4.20948741	      3.30715203
